<svg width="29" height="36" viewBox="0 0 29 36" fill="none" xmlns="http://www.w3.org/2000/svg">
<path d="M8.67774 18.5639L10.2838 16.6289L11.1366 17.5424C16.5266 23.3027 21.9348 26.8073 28.299 28.5937C29.1577 25.9361 29.2338 23.0112 28.4923 20.1576C27.5084 16.3714 25.2172 13.0727 21.8682 10.6186C18.9218 8.45935 16.2608 7.95358 13.4432 7.41792C11.8972 7.12393 10.2955 6.81997 8.54963 6.21952C5.34481 5.11664 1.98406 1.83953 1.95039 1.80714L0.114461 0L0.0119772 2.75556C0.00465694 2.96816 -0.165174 8.03497 1.05292 15.0277C2.33983 22.419 4.73064 27.9708 8.15873 31.5237C10.9404 34.4046 14.5728 36 18.1824 36C18.8631 36.0005 19.5429 35.943 20.216 35.8281C23.27 35.3032 25.8109 33.5633 27.2435 31.032C20.6918 29.0986 15.0954 25.4221 9.52835 19.4749L8.67774 18.5639Z" fill="#6AC50B"/>
</svg>
