<svg width="30" height="30" viewBox="0 0 30 30" fill="none" xmlns="http://www.w3.org/2000/svg">
<path d="M0 3C0 2.20435 0.395088 1.44129 1.09835 0.87868C1.80161 0.31607 2.75544 0 3.75 0H18.75C19.2472 8.49561e-05 19.7241 0.158176 20.0756 0.4395L29.4506 7.9395C29.8023 8.22074 29.9999 8.60221 30 9V27C30 27.7956 29.6049 28.5587 28.9016 29.1213C28.1984 29.6839 27.2446 30 26.25 30H3.75C2.75544 30 1.80161 29.6839 1.09835 29.1213C0.395088 28.5587 0 27.7956 0 27V3ZM25.4738 9L18.75 3.621V9H25.4738ZM15 3H3.75V27H26.25V12H16.875C16.3777 12 15.9008 11.842 15.5492 11.5607C15.1975 11.2794 15 10.8978 15 10.5V3ZM7.5 16.5C7.5 16.1022 7.69754 15.7206 8.04918 15.4393C8.40081 15.158 8.87772 15 9.375 15H20.625C21.1223 15 21.5992 15.158 21.9508 15.4393C22.3025 15.7206 22.5 16.1022 22.5 16.5C22.5 16.8978 22.3025 17.2794 21.9508 17.5607C21.5992 17.842 21.1223 18 20.625 18H9.375C8.87772 18 8.40081 17.842 8.04918 17.5607C7.69754 17.2794 7.5 16.8978 7.5 16.5ZM7.5 22.5C7.5 22.1022 7.69754 21.7206 8.04918 21.4393C8.40081 21.158 8.87772 21 9.375 21H20.625C21.1223 21 21.5992 21.158 21.9508 21.4393C22.3025 21.7206 22.5 22.1022 22.5 22.5C22.5 22.8978 22.3025 23.2794 21.9508 23.5607C21.5992 23.842 21.1223 24 20.625 24H9.375C8.87772 24 8.40081 23.842 8.04918 23.5607C7.69754 23.2794 7.5 22.8978 7.5 22.5Z" fill="white"/>
</svg>
