<svg width="30" height="30" viewBox="0 0 30 30" fill="none" xmlns="http://www.w3.org/2000/svg">
<path d="M28.0435 4.1378C26.1585 4.13632 24.2903 4.41801 22.5375 4.96798C19.9614 1.81277 16.0614 0.237752 15.8755 0.164044C15.6037 0.0561661 15.304 0 15 0C14.696 0 14.3963 0.0561661 14.1245 0.164044C13.9386 0.237752 10.0386 1.81277 7.4625 4.96798C5.70973 4.41801 3.84148 4.13632 1.95652 4.1378C1.43762 4.1378 0.939971 4.30129 0.573052 4.59229C0.206133 4.8833 0 5.27799 0 5.68954V10.862C0.00460989 13.7475 1.32934 16.5336 3.72819 18.703C6.12705 20.8724 9.43702 22.2777 13.0435 22.6579V25.9372L8.04946 23.9574C7.58653 23.7803 7.0543 23.7547 6.56781 23.8863C6.08132 24.0179 5.67965 24.296 5.44961 24.6605C5.21957 25.0251 5.17965 25.4468 5.33847 25.8345C5.4973 26.2222 5.8421 26.5448 6.29837 26.7325L14.1245 29.836C14.3963 29.9438 14.696 30 15 30C15.304 30 15.6037 29.9438 15.8755 29.836L23.7016 26.7325C23.9352 26.6431 24.144 26.5178 24.316 26.3638C24.4879 26.2099 24.6196 26.0304 24.7033 25.8357C24.7869 25.641 24.821 25.4351 24.8035 25.2299C24.7859 25.0247 24.7171 24.8243 24.6011 24.6404C24.485 24.4565 24.324 24.2927 24.1274 24.1586C23.9309 24.0244 23.7026 23.9226 23.456 23.8591C23.2094 23.7955 22.9493 23.7715 22.6908 23.7884C22.4324 23.8053 22.1807 23.8627 21.9505 23.9574L16.9565 25.9372V22.6579C20.563 22.2777 23.873 20.8724 26.2718 18.703C28.6707 16.5336 29.9954 13.7475 30 10.862V5.68954C30 5.27799 29.7939 4.8833 29.4269 4.59229C29.06 4.30129 28.5624 4.1378 28.0435 4.1378ZM15 3.35417C16.0386 3.89211 17.7929 4.946 19.1103 6.48352C17.4339 7.47203 16.0343 8.72561 15 10.165C13.9652 8.7259 12.5656 7.47239 10.8897 6.48352C12.2071 4.946 13.9614 3.89211 15 3.35417ZM3.91304 10.862V7.37836C6.47198 7.74505 8.78751 8.81234 10.456 10.3942C12.1246 11.976 13.0402 13.9721 13.0435 16.0345V19.5182C10.4847 19.1512 8.16933 18.0839 6.50086 16.5021C4.8324 14.9203 3.9166 12.9243 3.91304 10.862ZM26.087 10.862C26.0834 12.9243 25.1676 14.9203 23.4991 16.5021C21.8307 18.0839 19.5153 19.1512 16.9565 19.5182V16.0345C16.9598 13.9721 17.8754 11.976 19.544 10.3942C21.2125 8.81234 23.528 7.74505 26.087 7.37836V10.862Z" fill="white"/>
</svg>
