<svg width="34" height="34" viewBox="0 0 34 34" fill="none" xmlns="http://www.w3.org/2000/svg">
<path d="M21.2851 22.0066L22.7151 25.0816C22.7151 25.0816 29.1434 26.4466 29.1434 29.6933C29.1434 31.9999 26.2834 31.9999 26.2834 31.9999H18.6667L14.9167 29.9166" stroke="white" stroke-width="3" stroke-linecap="round" stroke-linejoin="round"/>
<path d="M12.715 22.0066L11.2867 25.0816C11.2867 25.0816 4.85669 26.4466 4.85669 29.6933C4.85669 31.9999 7.71669 31.9999 7.71669 31.9999H11.1667L14.9167 29.9166L19.5 26.9999" stroke="white" stroke-width="3" stroke-linecap="round" stroke-linejoin="round"/>
<path d="M2 23.5433C2 23.5433 5.57167 22.775 7.715 22.0067C9.85667 11.2433 16.2833 12.0117 17 12.0117C17.715 12.0117 24.1433 11.2433 26.285 22.0067C28.4283 22.7733 32 23.5433 32 23.5433M17 8.66667C17.8841 8.66667 18.7319 8.31548 19.357 7.69036C19.9821 7.06524 20.3333 6.21739 20.3333 5.33333C20.3333 4.44928 19.9821 3.60143 19.357 2.97631C18.7319 2.35119 17.8841 2 17 2C16.1159 2 15.2681 2.35119 14.643 2.97631C14.0179 3.60143 13.6667 4.44928 13.6667 5.33333C13.6667 6.21739 14.0179 7.06524 14.643 7.69036C15.2681 8.31548 16.1159 8.66667 17 8.66667Z" stroke="white" stroke-width="3" stroke-linecap="round" stroke-linejoin="round"/>
</svg>
